<?xml version="1.0" encoding="UTF-8"?>
<svg version="1.1" xmlns="http://www.w3.org/2000/svg" width="1920" height="650">
<path d="M0 0 C633.6 0 1267.2 0 1920 0 C1920 214.5 1920 429 1920 650 C1286.4 650 652.8 650 0 650 C0 435.5 0 221 0 0 Z " fill="#CBCBCB" transform="translate(0,0)"/>
<path d="M0 0 C3.94492071 1.23762218 6.22160506 2.774345 8.375 6.25 C11.58283898 13.49783702 11.2755483 23.25038817 8.75 30.6875 C6.44427444 35.0519091 4.72061832 37.42646056 0 39 C-4.35886385 39.49345629 -6.44404122 39.33143696 -10.25 37.0625 C-15.50670283 32.0166275 -16.18655005 25.42362277 -16.4375 18.4375 C-16.25225928 11.229952 -14.54789014 6.75447582 -9.6875 1.5 C-6.15346694 -0.47248357 -4.000265 -0.49126061 0 0 Z " fill="#9E9E9E" transform="translate(1084,311)"/>
<path d="M0 0 C3.94492071 1.23762218 6.22160506 2.774345 8.375 6.25 C11.58283898 13.49783702 11.2755483 23.25038817 8.75 30.6875 C6.44427444 35.0519091 4.72061832 37.42646056 0 39 C-4.35886385 39.49345629 -6.44404122 39.33143696 -10.25 37.0625 C-15.50670283 32.0166275 -16.18655005 25.42362277 -16.4375 18.4375 C-16.25225928 11.229952 -14.54789014 6.75447582 -9.6875 1.5 C-6.15346694 -0.47248357 -4.000265 -0.49126061 0 0 Z " fill="#9E9E9E" transform="translate(934,311)"/>
<path d="M0 0 C3.98066095 1.57724302 5.60667274 2.41000911 8 6 C8 7.32 8 8.64 8 10 C5.6875 10.25 5.6875 10.25 3 10 C2.525625 9.34 2.05125 8.68 1.5625 8 C0.11125698 5.6796264 0.11125698 5.6796264 -2.9375 5.5 C-6.03054484 5.78540615 -6.03054484 5.78540615 -8.3125 7.5625 C-10.46797134 10.67595861 -10.7128051 13.26646636 -11 17 C-10.0409375 16.2265625 -10.0409375 16.2265625 -9.0625 15.4375 C-4.82322204 13.44763483 -1.45507439 13.65217858 3 15 C6.17377084 17.57868881 8.64263915 19.77893449 9.30859375 23.91796875 C9.57618531 28.62920205 9.24366823 31.33499573 6.125 35 C3.16069189 38.09319107 1.10423975 39.19373509 -3.1875 39.4375 C-7.88836422 39.39200777 -10.18703615 37.9139882 -13.58984375 34.80078125 C-18.34319139 28.73071681 -17.51860692 21.30911629 -17 14 C-16.12212989 9.13056421 -15.00699539 5.98243452 -11.4375 2.5 C-7.31653664 -0.03597745 -4.90532693 -0.3270218 0 0 Z " fill="#9E9E9E" transform="translate(1023,311)"/>
<path d="M0 0 C3.65975387 2.94813506 5.36959812 6.26113668 6.25 10.8125 C6.75198537 18.6511946 7.0232712 25.7864088 3.25 32.8125 C-0.33577887 36.3086344 -3.07576563 37.62296403 -8.0625 38.1875 C-13.02646777 37.68268972 -14.36998013 36.43394986 -17.75 32.8125 C-18.625 30 -18.625 30 -18.75 27.8125 C-16.4375 27.5625 -16.4375 27.5625 -13.75 27.8125 C-13.275625 28.4725 -12.80125 29.1325 -12.3125 29.8125 C-10.86365027 32.14024658 -10.86365027 32.14024658 -7.8125 32.25 C-4.34563317 31.75473331 -3.01131221 31.49257374 -0.75 28.8125 C-0.11556306 26.10947877 0.06703246 23.60275492 0.25 20.8125 C-0.245 21.3075 -0.74 21.8025 -1.25 22.3125 C-4.71930536 24.39408322 -7.86102059 24.62021111 -11.75 23.8125 C-15.42212749 21.78316639 -18.54838537 18.89798973 -19.75 14.8125 C-20.2150834 10.62674941 -20.01947631 8.35145262 -18.125 4.5625 C-13.21359653 -1.12438823 -7.07489767 -3.05506945 0 0 Z " fill="#9E9E9E" transform="translate(876.75,312.1875)"/>
<path d="M0 0 C0.83265381 0.00523682 1.66530762 0.01047363 2.52319336 0.01586914 C3.42231445 0.0190918 4.32143555 0.02231445 5.24780273 0.02563477 C6.66609375 0.03820312 6.66609375 0.03820312 8.11303711 0.05102539 C9.06243164 0.05553711 10.01182617 0.06004883 10.98999023 0.06469727 C13.34356776 0.07652429 15.69702188 0.09300514 18.05053711 0.11352539 C18.05053711 1.76352539 18.05053711 3.41352539 18.05053711 5.11352539 C12.77053711 5.11352539 7.49053711 5.11352539 2.05053711 5.11352539 C1.39053711 8.41352539 0.73053711 11.71352539 0.05053711 15.11352539 C1.37053711 14.45352539 2.69053711 13.79352539 4.05053711 13.11352539 C8.96780443 12.77046023 12.24178495 13.43956526 16.05053711 16.61352539 C16.71053711 17.43852539 17.37053711 18.26352539 18.05053711 19.11352539 C18.38053711 19.44352539 18.71053711 19.77352539 19.05053711 20.11352539 C19.48274731 24.60186205 19.57852066 28.76423409 17.92553711 32.98852539 C14.51979012 36.84837197 11.67524976 38.94250301 6.48803711 39.48852539 C1.68082558 38.96410231 -0.8361665 38.28867158 -4.19946289 34.73852539 C-5.76252719 32.39392894 -6.54226395 30.86211825 -6.94946289 28.11352539 C-4.96946289 28.11352539 -2.98946289 28.11352539 -0.94946289 28.11352539 C-0.76383789 28.75290039 -0.57821289 29.39227539 -0.38696289 30.05102539 C0.97720962 32.48510211 0.97720962 32.48510211 4.42553711 32.98852539 C7.87084882 33.10732924 9.32219628 33.10731292 12.05053711 31.11352539 C13.57545709 28.06368543 13.28616259 25.47118849 13.05053711 22.11352539 C12.19833788 20.01110095 12.19833788 20.01110095 10.05053711 19.11352539 C5.85511905 18.77518522 3.13533588 18.67960588 -0.76196289 20.23852539 C-1.48383789 20.52727539 -2.20571289 20.81602539 -2.94946289 21.11352539 C-3.93946289 20.45352539 -4.92946289 19.79352539 -5.94946289 19.11352539 C-5.47516567 16.13350701 -4.99527593 13.15458252 -4.51196289 10.17602539 C-4.37725586 9.32588867 -4.24254883 8.47575195 -4.10375977 7.59985352 C-3.97163086 6.7909668 -3.83950195 5.98208008 -3.70336914 5.14868164 C-3.58292236 4.39981689 -3.46247559 3.65095215 -3.33837891 2.87939453 C-2.79554711 0.4146724 -2.54455695 0.14818021 0 0 Z " fill="#9E9E9E" transform="translate(1043.949462890625,310.886474609375)"/>
<path d="M0 0 C1.90177785 3.8035557 1.7266575 7.8762187 1 12 C-0.86717141 15.19354623 -3.27637249 17.52165227 -6 20 C-6.71800781 20.67675781 -7.43601562 21.35351562 -8.17578125 22.05078125 C-13.60107715 27 -13.60107715 27 -16 27 C-16 27.66 -16 28.32 -16 29 C-10.06 29.33 -4.12 29.66 2 30 C2 31.65 2 33.3 2 35 C-6.58 35 -15.16 35 -24 35 C-22.55843898 26.35063387 -18.10446504 22.46454889 -11.25 17.3125 C-7.99563581 14.86339657 -5.45076876 12.93780091 -4 9 C-3.98546047 6.32024404 -3.98546047 6.32024404 -5 4 C-8.46998729 1.68667514 -9.92509248 1.66042437 -14 2 C-17.12474627 3.63473516 -17.12474627 3.63473516 -17.6875 6.125 C-17.790625 6.74375 -17.89375 7.3625 -18 8 C-19.65 7.67 -21.3 7.34 -23 7 C-22.68416552 3.52582073 -22.36514364 1.46587292 -20.1875 -1.3125 C-13.60191094 -6.39281156 -6.33198998 -4.30575319 0 0 Z " fill="#9D9D9D" transform="translate(911,315)"/>
<path d="M0 0 C3.125 0.375 3.125 0.375 5.4375 2 C9.31882827 7.46261016 8.85721637 15.89837187 8.125 22.375 C6.69905968 25.19083159 5.35414754 27.14585246 3.125 29.375 C0.25 29.8125 0.25 29.8125 -2.875 29.375 C-8.12335989 23.98479254 -8.14983273 19.92896398 -8.1015625 12.65625 C-7.72064859 7.13956575 -6.26117847 0.81667545 0 0 Z " fill="#CACACA" transform="translate(1080.875,315.625)"/>
<path d="M0 0 C3.125 0.375 3.125 0.375 5.4375 2 C9.31882827 7.46261016 8.85721637 15.89837187 8.125 22.375 C6.69905968 25.19083159 5.35414754 27.14585246 3.125 29.375 C0.25 29.8125 0.25 29.8125 -2.875 29.375 C-8.12335989 23.98479254 -8.14983273 19.92896398 -8.1015625 12.65625 C-7.72064859 7.13956575 -6.26117847 0.81667545 0 0 Z " fill="#CACACA" transform="translate(930.875,315.625)"/>
<path d="M0 0 C2.625 -0.5625 2.625 -0.5625 6 0 C8.39920247 2.7720515 10.21328523 5.80672254 12 9 C12.36351562 8.3503125 12.72703125 7.700625 13.1015625 7.03125 C14.61257396 4.52064635 16.08106255 2.21715071 18 0 C21.375 -0.5625 21.375 -0.5625 24 0 C22.00077824 3.57003885 20.10559225 6.86106283 17.625 10.125 C17.08875 11.07375 16.5525 12.0225 16 13 C17.16610583 17.02035324 19.35544826 20.32411492 21.625 23.8125 C22.25664063 24.78832031 22.88828125 25.76414062 23.5390625 26.76953125 C24.02117188 27.50558594 24.50328125 28.24164063 25 29 C22.2109375 29.2421875 22.2109375 29.2421875 19 29 C17.1015625 27.3203125 17.1015625 27.3203125 15.625 25.125 C15.12226562 24.40570313 14.61953125 23.68640625 14.1015625 22.9453125 C13 21 13 21 13 19 C10.35855149 21.49866751 8.22719925 23.55547973 6.5625 26.8125 C6.046875 27.534375 5.53125 28.25625 5 29 C1.8125 29.3125 1.8125 29.3125 -1 29 C0.82454363 25.07500614 3.28300019 21.78050326 5.85546875 18.31640625 C7.20717339 16.05709563 7.20717339 16.05709563 6.8671875 13.5078125 C5.90538502 10.7263837 4.65198736 8.69981219 2.9375 6.3125 C0 2.2 0 2.2 0 0 Z " fill="#9E9E9E" transform="translate(964,321)"/>
<path d="M0 0 C0.99 0 1.98 0 3 0 C3 12.87 3 25.74 3 39 C1.68 39 0.36 39 -1 39 C-1 29.1 -1 19.2 -1 9 C-3.64 10.65 -6.28 12.3 -9 14 C-9.66 14 -10.32 14 -11 14 C-11 11.875 -11 11.875 -10 9 C-8.06472469 7.29865907 -6.04860478 5.86566927 -3.91015625 4.4296875 C-1.73948599 2.97078745 -1.73948599 2.97078745 0 0 Z " fill="#9C9C9C" transform="translate(841,311)"/>
<path d="M0 0 C4.11289267 0.85685264 5.59686932 2.20235933 8 5.625 C8.06641554 9.47710127 7.87229157 11.62348005 5.3125 14.5625 C2.2135552 15.9863395 0.37817188 16.17653827 -3 15.625 C-6.0099077 13.33485284 -7.69783903 11.83364386 -8.625 8.125 C-7.45181298 3.43225193 -4.67926222 0.9748463 0 0 Z " fill="#C9C9C9" transform="translate(870,315.375)"/>
<path d="M0 0 C2.875 1.5625 2.875 1.5625 5 4 C5.625 7.5 5.625 7.5 5 11 C2.9375 13.5 2.9375 13.5 0 15 C-3.49305789 14.93977486 -5.90366489 14.63658168 -8.9375 12.875 C-10.6712306 9.81547541 -10.42145216 7.43182475 -10 4 C-7.25657347 -0.1151398 -4.81370572 -0.78591114 0 0 Z " fill="#CACACA" transform="translate(1022,330)"/>
</svg>
